HIERARCHY
ROOT mixamorig8:Hips
{
	OFFSET 0.000000 99.715050 0.000000
	CHANNELS 6 Xposition Yposition Zposition Xrotation Yrotation Zrotation
	JOINT mixamorig8:Spine
	{
		OFFSET 0.000000 9.124702 -0.303000
		CHANNELS 3 Xrotation Yrotation Zrotation
		JOINT mixamorig8:Spine1
		{
			OFFSET 0.000000 10.645531 -0.353539
			CHANNELS 3 Xrotation Yrotation Zrotation
			JOINT mixamorig8:Spine2
			{
				OFFSET 0.000000 12.166283 -0.404044
				CHANNELS 3 Xrotation Yrotation Zrotation
				JOINT mixamorig8:Neck
				{
					OFFSET 0.000000 13.687073 -0.454549
					CHANNELS 3 Xrotation Yrotation Zrotation
					JOINT mixamorig8:Head
					{
						OFFSET 0.000000 9.016296 1.273100
						CHANNELS 3 Xrotation Yrotation Zrotation
						JOINT mixamorig8:HeadTop_End
						{
							OFFSET 0.000000 20.780304 2.934300
							CHANNELS 3 Xrotation Yrotation Zrotation
							End Site
							{
								OFFSET 0.000000 20.986450 0.000000
							}
						}
					}
				}
				JOINT mixamorig8:LeftShoulder
				{
					OFFSET 6.065200 11.939926 -0.447754
					CHANNELS 3 Xrotation Yrotation Zrotation
					JOINT mixamorig8:LeftArm
					{
						OFFSET 12.265931 -3.441513 0.013525
						CHANNELS 3 Xrotation Yrotation Zrotation
						JOINT mixamorig8:LeftForeArm
						{
							OFFSET 22.402000 0.000000 -0.000000
							CHANNELS 3 Xrotation Yrotation Zrotation
							JOINT mixamorig8:LeftHand
							{
								OFFSET 24.913612 0.000000 -0.000000
								CHANNELS 3 Xrotation Yrotation Zrotation
								JOINT mixamorig8:LeftHandThumb1
								{
									OFFSET 3.108391 -1.249695 2.520455
									CHANNELS 3 Xrotation Yrotation Zrotation
									JOINT mixamorig8:LeftHandThumb2
									{
										OFFSET 2.598007 -1.499954 1.499958
										CHANNELS 3 Xrotation Yrotation Zrotation
										JOINT mixamorig8:LeftHandThumb3
										{
											OFFSET 2.404716 -1.388367 1.388365
											CHANNELS 3 Xrotation Yrotation Zrotation
											JOINT mixamorig8:LeftHandThumb4
											{
												OFFSET 1.918343 -1.107559 1.107557
												CHANNELS 3 Xrotation Yrotation Zrotation
												End Site
												{
													OFFSET 1.624725 -1.066254 1.535196
												}
											}
										}
									}
								}
								JOINT mixamorig8:LeftHandIndex1
								{
									OFFSET 9.249443 -0.273926 2.458498
									CHANNELS 3 Xrotation Yrotation Zrotation
									JOINT mixamorig8:LeftHandIndex2
									{
										OFFSET 2.992104 0.000000 -0.000000
										CHANNELS 3 Xrotation Yrotation Zrotation
										JOINT mixamorig8:LeftHandIndex3
										{
											OFFSET 2.839005 0.000000 -0.000000
											CHANNELS 3 Xrotation Yrotation Zrotation
											JOINT mixamorig8:LeftHandIndex4
											{
												OFFSET 2.498001 0.000000 -0.000000
												CHANNELS 3 Xrotation Yrotation Zrotation
												End Site
												{
													OFFSET 2.498001 0.000000 -0.003100
												}
											}
										}
									}
								}
								JOINT mixamorig8:LeftHandMiddle1
								{
									OFFSET 9.137794 0.000000 -0.000000
									CHANNELS 3 Xrotation Yrotation Zrotation
									JOINT mixamorig8:LeftHandMiddle2
									{
										OFFSET 3.243202 0.000000 -0.000000
										CHANNELS 3 Xrotation Yrotation Zrotation
										JOINT mixamorig8:LeftHandMiddle3
										{
											OFFSET 3.041000 0.000000 -0.000000
											CHANNELS 3 Xrotation Yrotation Zrotation
											JOINT mixamorig8:LeftHandMiddle4
											{
												OFFSET 2.673203 0.000000 -0.000000
												CHANNELS 3 Xrotation Yrotation Zrotation
												End Site
												{
													OFFSET 2.673203 0.000000 -0.001100
												}
											}
										}
									}
								}
								JOINT mixamorig8:LeftHandRing1
								{
									OFFSET 8.775978 0.014450 -1.999339
									CHANNELS 3 Xrotation Yrotation Zrotation
									JOINT mixamorig8:LeftHandRing2
									{
										OFFSET 2.766403 0.000000 0.000000
										CHANNELS 3 Xrotation Yrotation Zrotation
										JOINT mixamorig8:LeftHandRing3
										{
											OFFSET 2.749901 0.000000 0.000000
											CHANNELS 3 Xrotation Yrotation Zrotation
											JOINT mixamorig8:LeftHandRing4
											{
												OFFSET 2.424698 0.000000 0.000000
												CHANNELS 3 Xrotation Yrotation Zrotation
												End Site
												{
													OFFSET 2.424698 0.000000 0.000900
												}
											}
										}
									}
								}
								JOINT mixamorig8:LeftHandPinky1
								{
									OFFSET 8.082886 -0.292648 -3.802455
									CHANNELS 3 Xrotation Yrotation Zrotation
									JOINT mixamorig8:LeftHandPinky2
									{
										OFFSET 2.488899 0.000000 0.000000
										CHANNELS 3 Xrotation Yrotation Zrotation
										JOINT mixamorig8:LeftHandPinky3
										{
											OFFSET 2.143799 0.000000 0.000000
											CHANNELS 3 Xrotation Yrotation Zrotation
											JOINT mixamorig8:LeftHandPinky4
											{
												OFFSET 1.878799 0.000000 0.000000
												CHANNELS 3 Xrotation Yrotation Zrotation
												End Site
												{
													OFFSET 1.878799 -0.000015 0.002600
												}
											}
										}
									}
								}
							}
						}
					}
				}
				JOINT mixamorig8:RightShoulder
				{
					OFFSET -6.065200 11.939987 -0.461263
					CHANNELS 3 Xrotation Yrotation Zrotation
					JOINT mixamorig8:RightArm
					{
						OFFSET -12.265916 -3.441574 -0.013522
						CHANNELS 3 Xrotation Yrotation Zrotation
						JOINT mixamorig8:RightForeArm
						{
							OFFSET -22.393211 0.000000 -0.000001
							CHANNELS 3 Xrotation Yrotation Zrotation
							JOINT mixamorig8:RightHand
							{
								OFFSET -24.912712 0.000000 -0.000001
								CHANNELS 3 Xrotation Yrotation Zrotation
								JOINT mixamorig8:RightHandThumb1
								{
									OFFSET -3.082802 -1.281860 2.461742
									CHANNELS 3 Xrotation Yrotation Zrotation
									JOINT mixamorig8:RightHandThumb2
									{
										OFFSET -2.570496 -1.484070 1.484075
										CHANNELS 3 Xrotation Yrotation Zrotation
										JOINT mixamorig8:RightHandThumb3
										{
											OFFSET -2.395653 -1.383133 1.383130
											CHANNELS 3 Xrotation Yrotation Zrotation
											JOINT mixamorig8:RightHandThumb4
											{
												OFFSET -1.929306 -1.113876 1.113883
												CHANNELS 3 Xrotation Yrotation Zrotation
												End Site
												{
													OFFSET -1.603951 -1.064651 1.580364
												}
											}
										}
									}
								}
								JOINT mixamorig8:RightHandIndex1
								{
									OFFSET -9.335777 -0.357544 2.350772
									CHANNELS 3 Xrotation Yrotation Zrotation
									JOINT mixamorig8:RightHandIndex2
									{
										OFFSET -3.027008 0.000000 -0.000000
										CHANNELS 3 Xrotation Yrotation Zrotation
										JOINT mixamorig8:RightHandIndex3
										{
											OFFSET -2.769402 0.000000 -0.000000
											CHANNELS 3 Xrotation Yrotation Zrotation
											JOINT mixamorig8:RightHandIndex4
											{
												OFFSET -2.404411 0.000000 -0.000000
												CHANNELS 3 Xrotation Yrotation Zrotation
												End Site
												{
													OFFSET -2.404396 0.000046 -0.006000
												}
											}
										}
									}
								}
								JOINT mixamorig8:RightHandMiddle1
								{
									OFFSET -9.079842 0.000000 -0.000000
									CHANNELS 3 Xrotation Yrotation Zrotation
									JOINT mixamorig8:RightHandMiddle2
									{
										OFFSET -3.258202 0.000000 -0.000000
										CHANNELS 3 Xrotation Yrotation Zrotation
										JOINT mixamorig8:RightHandMiddle3
										{
											OFFSET -3.056503 0.000000 -0.000000
											CHANNELS 3 Xrotation Yrotation Zrotation
											JOINT mixamorig8:RightHandMiddle4
											{
												OFFSET -2.718704 0.000000 -0.000000
												CHANNELS 3 Xrotation Yrotation Zrotation
												End Site
												{
													OFFSET -2.718704 0.000015 -0.002000
												}
											}
										}
									}
								}
								JOINT mixamorig8:RightHandRing1
								{
									OFFSET -9.030006 -0.041382 -2.109523
									CHANNELS 3 Xrotation Yrotation Zrotation
									JOINT mixamorig8:RightHandRing2
									{
										OFFSET -2.741501 0.000000 -0.000000
										CHANNELS 3 Xrotation Yrotation Zrotation
										JOINT mixamorig8:RightHandRing3
										{
											OFFSET -2.602104 0.000000 -0.000000
											CHANNELS 3 Xrotation Yrotation Zrotation
											JOINT mixamorig8:RightHandRing4
											{
												OFFSET -2.302200 0.000000 -0.000000
												CHANNELS 3 Xrotation Yrotation Zrotation
												End Site
												{
													OFFSET -2.302200 0.000000 -0.001200
												}
											}
										}
									}
								}
								JOINT mixamorig8:RightHandPinky1
								{
									OFFSET -7.967911 -0.342865 -4.018029
									CHANNELS 3 Xrotation Yrotation Zrotation
									JOINT mixamorig8:RightHandPinky2
									{
										OFFSET -2.567299 0.000000 0.000000
										CHANNELS 3 Xrotation Yrotation Zrotation
										JOINT mixamorig8:RightHandPinky3
										{
											OFFSET -2.132797 0.000000 0.000000
											CHANNELS 3 Xrotation Yrotation Zrotation
											JOINT mixamorig8:RightHandPinky4
											{
												OFFSET -1.836403 0.000000 0.000000
												CHANNELS 3 Xrotation Yrotation Zrotation
												End Site
												{
													OFFSET -1.836395 0.000015 -0.001300
												}
											}
										}
									}
								}
							}
						}
					}
				}
			}
		}
	}
	JOINT mixamorig8:LeftUpLeg
	{
		OFFSET 9.810900 -5.071999 -0.000100
		CHANNELS 3 Xrotation Yrotation Zrotation
		JOINT mixamorig8:LeftLeg
		{
			OFFSET -0.502532 -44.813881 -1.905640
			CHANNELS 3 Xrotation Yrotation Zrotation
			JOINT mixamorig8:LeftFoot
			{
				OFFSET 0.502525 -35.035172 -4.418512
				CHANNELS 3 Xrotation Yrotation Zrotation
				JOINT mixamorig8:LeftToeBase
				{
					OFFSET 0.935037 -14.297938 10.746387
					CHANNELS 3 Xrotation Yrotation Zrotation
					JOINT mixamorig8:LeftToe_End
					{
						OFFSET 0.638332 0.092550 4.962559
						CHANNELS 3 Xrotation Yrotation Zrotation
						End Site
						{
							OFFSET 0.638332 0.092550 4.962559
						}
					}
				}
			}
		}
	}
	JOINT mixamorig8:RightUpLeg
	{
		OFFSET -9.810900 -5.071999 0.150300
		CHANNELS 3 Xrotation Yrotation Zrotation
		JOINT mixamorig8:RightLeg
		{
			OFFSET 0.502557 -44.813866 -2.044670
			CHANNELS 3 Xrotation Yrotation Zrotation
			JOINT mixamorig8:RightFoot
			{
				OFFSET -0.502547 -35.035183 -4.429807
				CHANNELS 3 Xrotation Yrotation Zrotation
				JOINT mixamorig8:RightToeBase
				{
					OFFSET -0.934903 -14.297283 10.883691
					CHANNELS 3 Xrotation Yrotation Zrotation
					JOINT mixamorig8:RightToe_End
					{
						OFFSET -0.638303 0.093076 5.008935
						CHANNELS 3 Xrotation Yrotation Zrotation
						End Site
						{
							OFFSET -0.638303 0.093076 5.008936
						}
					}
				}
			}
		}
	}
}
MOTION
Frames: 4
Frame Time: 0.033333
-0.391180 87.172668 0.006553 2.317661 -0.111731 14.209444 11.260867 -6.287394 0.054474 0.826041 -1.684460 -0.081301 0.831194 -1.679008 -0.069354 0.264773 -5.325169 -0.350131 0.286376 -5.329483 -0.257666 -0.000001 -0.000000 -0.000000 0.390030 -7.113662 -15.858745 13.818819 10.033166 -57.626634 0.000065 -76.179074 0.000054 7.374443 8.588270 3.818941 -2.832640 -1.477328 13.645915 19.240281 19.690213 -6.942313 -18.674285 -19.016104 13.024387 -0.000000 -0.000001 -0.000000 -0.860232 2.184291 -28.931548 0.745539 2.861859 -29.197498 0.245027 1.678188 -16.612917 -0.000002 0.000000 -0.000001 1.505389 6.216132 -38.017803 0.846939 3.036015 -31.168697 0.373281 2.059495 -20.543225 -0.000000 -0.000001 -0.000000 4.144561 9.374824 -39.505900 1.451748 3.861392 -41.196808 0.221124 1.595902 -15.775932 -0.000001 0.000005 -0.000001 1.991608 7.120123 -36.160374 0.708866 2.795303 -28.454409 0.345411 1.983608 -19.753406 -0.000003 0.000002 -0.000001 0.598562 3.265804 15.797423 17.641993 3.568243 46.861552 -0.000026 52.766449 0.000022 18.897726 12.867831 1.562024 -8.879575 4.825532 -8.712540 17.703278 -27.978878 -1.443661 -5.739829 17.590293 -12.555383 0.000003 -0.000002 -0.000002 -0.329072 -2.295703 22.502224 1.145052 -3.060414 41.019285 0.241762 -1.482513 18.523729 0.000005 0.000003 -0.000001 1.411804 -5.682533 35.397947 0.992229 -2.875555 38.068370 0.150509 -1.175666 14.591376 0.000001 -0.000005 -0.000000 3.805739 -8.246646 41.741485 0.788862 -2.595325 33.809221 0.206827 -1.373853 17.121879 0.000000 0.000002 0.000001 1.189446 -5.348035 44.678801 1.008029 -2.895595 38.382716 0.474652 -2.050197 26.068179 0.000000 0.000000 -0.000000 -31.114490 10.228721 11.070223 78.581504 9.157812 -0.667435 1.841278 11.725872 -8.799589 -1.728324 0.000015 -0.000003 0.000001 0.000000 0.000002 -22.955438 -3.743993 3.204026 60.699700 -6.151799 -2.648708 -31.006388 5.855853 -17.324143 -14.779858 -0.000004 0.000002 0.000001 0.000000 0.000000 
-5.710594 85.925346 -7.075013 1.205237 2.833844 14.133262 11.049515 -8.270028 0.827338 0.821545 -2.236305 -0.034178 0.829438 -2.229113 -0.019282 0.148240 -4.962226 -0.669502 0.159249 -4.972536 -0.585455 0.000000 0.000001 -0.000001 0.399769 -7.312330 -15.240903 12.360554 8.428570 -54.642852 0.000195 -91.191659 0.000234 6.364684 10.010633 4.779749 -2.832638 -1.477328 13.645919 20.084002 21.497500 -7.915733 -19.093457 -17.425187 11.190014 0.000000 -0.000001 -0.000002 -0.795859 1.878811 -35.174952 0.833491 3.013658 -30.913590 0.221915 1.598732 -15.804539 -0.000001 0.000001 -0.000001 1.135165 5.795913 -42.036191 0.939855 3.184324 -32.881002 0.378291 2.072843 -20.682530 0.000001 0.000002 -0.000000 3.985483 8.863799 -42.769313 1.661713 4.088285 -44.225017 0.209512 1.554248 -15.353574 -0.000003 -0.000001 -0.000002 1.268495 5.915980 -38.519770 0.820808 2.992388 -30.671268 0.333558 1.950306 -19.408134 0.000001 -0.000001 0.000001 0.555195 4.395405 13.825525 29.113637 -4.983812 50.238449 -0.000030 59.655767 0.000013 18.302308 8.030388 4.726700 -8.879576 4.825538 -8.712541 12.328193 -18.904167 -6.773896 -3.722580 20.333487 -14.542603 0.000003 -0.000006 -0.000004 -0.048509 -1.248447 21.496881 1.204556 -3.127398 42.121958 0.243647 -1.488158 18.596800 -0.000002 -0.000001 -0.000000 1.146219 -5.328769 34.123779 1.016935 -2.906799 38.558235 0.149088 -1.170144 14.521221 -0.000000 -0.000001 0.000000 3.892109 -8.485477 40.414417 0.894040 -2.745723 36.066390 0.207122 -1.374791 17.133646 0.000001 0.000000 0.000001 2.121320 -7.437652 42.510746 1.171846 -3.090907 41.519088 0.489060 -2.079375 26.467989 0.000001 0.000002 -0.000001 -22.608237 13.666070 10.744028 83.526110 8.851704 -1.591821 0.078955 8.495569 -10.181602 -2.684666 0.000023 -0.000003 -0.000001 -0.000001 -0.000000 -27.374725 -5.766524 6.404616 60.032288 -10.051533 -0.345527 -28.176458 6.522925 -21.324614 -13.056419 -0.000007 0.000001 0.000001 -0.000000 0.000000 
-11.687026 86.107559 -13.722492 -0.420749 7.522041 14.571939 10.210048 -9.888433 0.742907 0.602542 -2.642652 -0.058640 0.613419 -2.634179 -0.047092 0.275293 -4.783737 -1.140791 0.280945 -4.801515 -1.061758 0.000001 -0.000001 0.000001 0.284088 -9.102197 -15.744551 8.699755 6.994161 -46.319833 -0.000022 -105.190193 -0.000032 14.167842 11.231160 0.606115 -2.832643 -1.477329 13.645919 21.144763 23.526197 -9.095387 -19.266372 -16.295955 9.800817 0.000002 -0.000001 -0.000000 -0.757814 1.930125 -39.603237 0.857953 3.054108 -31.375901 0.217004 1.581210 -15.626899 0.000001 0.000002 0.000000 0.889142 5.590277 -44.372604 0.962639 3.219214 -33.288583 0.381771 2.082026 -20.778516 0.000000 0.000001 0.000002 3.677825 8.418841 -44.374940 1.771018 4.197364 -45.737768 0.204375 1.535407 -15.162793 -0.000001 -0.000001 -0.000002 0.664973 5.187803 -39.565281 0.884178 3.096631 -31.864649 0.328460 1.935821 -19.258142 0.000001 0.000000 -0.000001 0.602830 1.651296 10.330995 43.325044 -9.338735 56.215971 0.000031 67.390902 -0.000051 15.719742 8.503074 4.145325 -8.879575 4.825531 -8.712541 8.764801 -8.662650 -11.023194 -1.498864 22.894239 -16.564406 0.000003 -0.000000 -0.000001 0.220493 -0.511115 19.534688 1.197091 -3.119149 41.985019 0.243123 -1.486546 18.575891 -0.000000 0.000002 -0.000002 1.088615 -5.292142 31.409769 1.054474 -2.953211 39.292842 0.148155 -1.166554 14.475756 -0.000001 -0.000003 -0.000001 4.265848 -9.264460 37.903011 0.992026 -2.875289 38.064487 0.209199 -1.381522 17.220367 -0.000000 -0.000002 -0.000000 2.785410 -9.718252 38.809811 1.336956 -3.267660 44.495445 0.504885 -2.110838 26.900833 0.000001 0.000002 0.000002 -12.998433 15.936214 8.808758 81.223428 8.633269 -2.809886 2.415914 2.127990 -8.675104 -6.311317 -0.000002 -0.000008 -0.000004 0.000001 0.000002 -29.600708 -7.692869 8.041163 53.549124 -10.395721 1.830428 -20.172532 3.668280 -25.008719 -10.627033 -0.000004 -0.000002 0.000000 -0.000000 0.000000 
-18.109247 87.383705 -20.498188 -2.548199 13.352925 16.312274 9.371620 -13.006161 -0.641162 0.252831 -3.385854 -0.412555 0.280694 -3.366314 -0.411427 0.640306 -4.582347 -1.518063 0.642077 -4.606261 -1.442215 -0.000001 0.000001 0.000000 0.152251 -11.474341 -15.727603 2.522358 7.351371 -37.600355 0.000015 -115.607358 0.000029 21.352686 10.116581 -2.000519 -2.832639 -1.477324 13.645915 21.741648 24.569973 -9.741065 -19.328329 -15.787333 9.169648 -0.000002 -0.000003 -0.000000 -0.634768 2.243028 -41.846209 0.833736 3.014066 -30.918077 0.220883 1.595050 -15.767152 0.000001 0.000002 0.000000 0.868411 5.591083 -45.071377 0.941483 3.186816 -32.909969 0.381294 2.080819 -20.765858 0.000000 0.000001 0.000001 3.560758 8.278537 -44.721295 1.767159 4.193606 -45.685076 0.205453 1.539388 -15.203181 0.000000 0.000000 -0.000002 0.602595 5.106228 -39.573416 0.889357 3.104922 -31.960183 0.327384 1.932761 -19.226393 -0.000000 -0.000002 0.000001 0.466190 -1.445003 6.589300 55.787445 -8.541553 61.048613 0.000056 72.564524 -0.000094 14.332238 10.311287 3.063154 -8.879575 4.825535 -8.712539 7.508452 -3.744755 -12.653353 -1.411018 23.150153 -16.032385 -0.000000 -0.000004 0.000001 0.373119 -0.336485 17.725627 1.128692 -3.041544 40.712114 0.240310 -1.478156 18.467566 -0.000001 0.000003 -0.000000 1.133769 -5.424949 29.431268 1.091492 -2.997826 40.005948 0.148085 -1.166244 14.471673 -0.000001 0.000002 -0.000001 4.599032 -10.045391 35.835247 1.024414 -2.916111 38.705572 0.212626 -1.392534 17.361993 0.000000 -0.000004 0.000000 2.931867 -10.614299 36.962211 1.395855 -3.326425 45.519382 0.513847 -2.128403 27.143312 -0.000000 -0.000004 -0.000000 -4.251691 16.579082 4.880740 74.220899 8.514189 -3.443867 8.219314 0.749568 -0.951146 -9.398491 0.000031 -0.000013 -0.000001 0.000001 0.000001 -29.681584 -9.510085 7.341929 41.145613 -9.989631 3.912912 -7.454601 -0.281358 -29.640842 -9.251239 -0.000001 -0.000007 -0.000000 -0.000000 0.000000 
